<svg xmlns="http://www.w3.org/2000/svg" xml:space="preserve" width="2048" height="2048" style="shape-rendering:geometricPrecision;text-rendering:geometricPrecision;image-rendering:optimizeQuality;fill-rule:evenodd;clip-rule:evenodd"><defs><clipPath id="id0"><path d="M1024-.001c565.539 0 1024 458.462 1024 1024 0 565.539-458.462 1024-1024 1024-565.539 0-1024-458.462-1024-1024 0-565.54 458.462-1024 1024-1024z"/></clipPath><style>.fil9{fill:#253035}.fil16{fill:#37474f}.fil1{fill:#e57373}</style></defs><g id="Layer_x0020_1"><path d="M1024-.001c565.539 0 1024 458.462 1024 1024 0 565.539-458.462 1024-1024 1024-565.539 0-1024-458.462-1024-1024 0-565.54 458.462-1024 1024-1024z" style="fill:#ef9a9a"/><g style="clip-path:url(#id0)"><g id="_289371512"><path id="_2926826961" class="fil1" d="M1579.56 734.763 2715.44 1870.65l1.12 1.49.98 1.61.81 1.7.66 1.78.48 1.87.29 1.93.1 1.98L1584 747.132l-.1-1.988-.29-1.931-.48-1.864-.66-1.786-.82-1.699-.97-1.604z"/><path id="_292682528" class="fil1" d="m1392.9 589.41 1135.88 1135.88 1.11 1.5.98 1.6.82 1.7.65 1.79.48 1.86.3 1.93.1 1.99L1397.33 601.778l-.1-1.988-.29-1.931-.48-1.864-.65-1.785-.82-1.7-.98-1.604z"/><path id="_292683128" class="fil1" d="M1584 922.133 2719.88 2058.02v38.88L1584 961.02z"/><path id="_292683176" class="fil1" d="M1584 961.02 2719.88 2096.9v485.21L1584 1446.22z"/><path id="_292683896" class="fil1" d="m1584 1446.22 1135.88 1135.89-.1 1.98-.29 1.94-.48 1.86-.66 1.79-.81 1.69-.98 1.61-1.12 1.5-1.25 1.38-1.38 1.25-1.5 1.12-1.6.97-1.7.82-1.79.66-1.86.48-1.93.29-1.99.1-1135.88-1135.88 1.98-.1 1.94-.3 1.86-.48 1.79-.65 1.69-.82 1.61-.97 1.5-1.12 1.38-1.26 1.25-1.38 1.12-1.49.97-1.61.82-1.7.66-1.78.48-1.87.29-1.93z"/><path id="_292683272" class="fil1" d="M650.666 1320.31 1786.55 2456.2h-167.22L483.444 1320.31z"/><path id="_292683296" class="fil1" d="M670.111 1465.67 1805.99 2601.55l-1.99-.1-1.93-.29-1.86-.48-1.79-.66-1.7-.82-1.6-.97-1.5-1.12L657.742 1461.23l1.497 1.12 1.604.97 1.699.82 1.787.65 1.863.48 1.931.3z"/><path id="_292683320" class="fil1" d="m1564.56 1465.67 1135.88 1135.88h-894.45L670.111 1465.67z"/><path id="_292683344" class="fil1" d="M483.444 1320.31 1619.33 2456.2l-1.99-.1-1.93-.3-1.87-.48-1.78-.65-1.7-.82-1.61-.97-1.49-1.12L471.076 1315.87l1.496 1.12 1.604.98 1.7.82 1.787.65 1.863.48 1.931.29z"/><path id="_292683656" class="fil1" d="M1397.33 601.778 2533.22 1737.66v125.91L1397.33 727.686z"/><path id="_292683560" class="fil1" d="M1584 747.132 2719.88 1883.01v175.01L1584 922.133z"/><path id="_289371584" class="fil1" d="M1397.33 727.686h167.222c10.739 0 19.445 8.707 19.445 19.446v699.092c0 10.739-8.706 19.445-19.445 19.445H670.106c-10.739 0-19.445-8.706-19.445-19.445v-125.91H483.44c-10.738 0-19.444-8.706-19.444-19.444V601.779c0-10.739 8.706-19.446 19.444-19.446h894.447c10.738 0 19.444 8.707 19.444 19.446v125.908z"/></g></g><path d="M1024-.001c565.539 0 1024 458.462 1024 1024 0 565.539-458.462 1024-1024 1024-565.539 0-1024-458.462-1024-1024 0-565.54 458.462-1024 1024-1024z" style="fill:none"/><path d="M1397.33 776.779v524.091c0 10.739-8.707 19.445-19.446 19.445H483.44c-10.738 0-19.444-8.706-19.444-19.445V776.779h933.335z" style="fill:#555a61"/><path style="fill:#494f56" d="M1397.33 776.779v38.886H464v-38.886z"/><path d="M483.444 582.332h894.445c10.739 0 19.446 8.706 19.446 19.446v174.999H464v-175c0-10.74 8.706-19.445 19.444-19.445z" style="fill:#2a3541;fill-rule:nonzero"/><path style="fill:#873636;fill-rule:nonzero" d="M1241.87 639.674v77.777h77.78v-77.777z"/><path style="fill:#8e652d;fill-rule:nonzero" d="M969.461 717.451h77.779v-77.777h-77.779z"/><path style="fill:#49692e;fill-rule:nonzero" d="M1105.47 639.674v77.777h77.77v-77.777z"/><path class="fil9" d="M1056.39 1155.92v-28.05h204.37v28.05zM846.623 1117.16l131.742-68.95-131.742-68.351v-38.683l166.357 88.654v36.32l-166.357 89.77zM766.935 1155.92l-166.358-89.77v-36.32l166.358-88.654v38.683l-131.917 68.351 131.917 68.95z"/><path d="M1584 922.133v524.091c0 10.739-8.706 19.445-19.446 19.445H670.11c-10.738 0-19.444-8.706-19.444-19.445V922.133H1584z" style="fill:#989faa"/><path style="fill:#7b838e" d="M1584 922.133v38.887H650.666v-38.887z"/><path d="M670.111 727.687h894.445c10.74 0 19.446 8.706 19.446 19.445v175H650.667v-175c0-10.74 8.706-19.445 19.444-19.445z" style="fill:#526072;fill-rule:nonzero"/><path style="fill:#ef5350;fill-rule:nonzero" d="M1428.53 785.027v77.777h77.78v-77.777z"/><path style="fill:#ffab40;fill-rule:nonzero" d="M1156.13 862.804h77.77v-77.777h-77.77z"/><path style="fill:#7cb342;fill-rule:nonzero" d="M1292.13 785.027v77.777h77.78v-77.777z"/><path class="fil16" d="M1243.06 1301.27v-28.05h204.36v28.05zM1033.29 1262.52l131.74-68.95-131.74-68.36v-38.68l166.36 88.66v36.32l-166.36 89.76zM953.602 1301.27l-166.359-89.76v-36.32l166.359-88.66v38.68l-131.918 68.36 131.918 68.95z"/></g></svg>